<svg xmlns="http://www.w3.org/2000/svg" viewBox="0 0 800 660" font-family="system-ui, -apple-system, sans-serif">
<rect width="800" height="660" rx="12" fill="#1C1C1A"/>
<defs><marker id="a" viewBox="0 0 10 10" refX="8" refY="5" markerWidth="6" markerHeight="6" orient="auto-start-reverse"><path d="M2 1L8 5L2 9" fill="none" stroke="context-stroke" stroke-width="1.5" stroke-linecap="round" stroke-linejoin="round"/></marker></defs>
<rect x="20" y="15" width="760" height="630" rx="14" fill="none" stroke="#444441" stroke-width="0.5" stroke-dasharray="4 3"/>
<text x="400" y="42" text-anchor="middle" font-size="14" font-weight="500" fill="#D3D1C7">SageClaw binary (~30MB) — single process, zero dependencies</text>
<rect x="48" y="60" width="88" height="34" rx="6" fill="#3C3489" stroke="#AFA9EC" stroke-width="0.5"/>
<text x="92" y="82" text-anchor="middle" font-size="11" font-weight="500" fill="#EEEDFE">Web</text>
<rect x="146" y="60" width="88" height="34" rx="6" fill="#3C3489" stroke="#AFA9EC" stroke-width="0.5"/>
<text x="190" y="82" text-anchor="middle" font-size="11" font-weight="500" fill="#EEEDFE">CLI</text>
<rect x="244" y="60" width="88" height="34" rx="6" fill="#3C3489" stroke="#AFA9EC" stroke-width="0.5"/>
<text x="288" y="82" text-anchor="middle" font-size="11" font-weight="500" fill="#EEEDFE">Telegram</text>
<rect x="342" y="60" width="88" height="34" rx="6" fill="#3C3489" stroke="#AFA9EC" stroke-width="0.5"/>
<text x="386" y="82" text-anchor="middle" font-size="11" font-weight="500" fill="#EEEDFE">Discord</text>
<rect x="440" y="60" width="88" height="34" rx="6" fill="#3C3489" stroke="#AFA9EC" stroke-width="0.5"/>
<text x="484" y="82" text-anchor="middle" font-size="11" font-weight="500" fill="#EEEDFE">Zalo</text>
<rect x="538" y="60" width="88" height="34" rx="6" fill="#3C3489" stroke="#AFA9EC" stroke-width="0.5"/>
<text x="582" y="82" text-anchor="middle" font-size="11" font-weight="500" fill="#EEEDFE">WhatsApp</text>
<rect x="636" y="60" width="88" height="34" rx="6" fill="#3C3489" stroke="#AFA9EC" stroke-width="0.5"/>
<text x="680" y="82" text-anchor="middle" font-size="11" font-weight="500" fill="#EEEDFE">MCP</text>
<line x1="400" y1="94" x2="400" y2="116" stroke="#888780" stroke-width="0.8" marker-end="url(#a)"/>
<rect x="240" y="118" width="320" height="34" rx="6" fill="#2C2C2A" stroke="#5F5E5A" stroke-width="0.5"/>
<text x="400" y="140" text-anchor="middle" font-size="12" font-weight="500" fill="#D3D1C7">Message bus (pub/sub)</text>
<line x1="400" y1="152" x2="400" y2="174" stroke="#888780" stroke-width="0.8" marker-end="url(#a)"/>
<rect x="40" y="176" width="720" height="56" rx="10" fill="#042C53" stroke="#85B7EB" stroke-width="0.5"/>
<text x="400" y="200" text-anchor="middle" font-size="12" font-weight="500" fill="#B5D4F4">5-stage pipeline</text>
<text x="400" y="218" text-anchor="middle" font-size="10" fill="#85B7EB">Ingest → Debounce (1s) → Classify (keyword + LLM) → Lane schedule (4 lanes) → Agent loop</text>
<line x1="400" y1="232" x2="400" y2="248" stroke="#888780" stroke-width="0.8" marker-end="url(#a)"/>
<rect x="60" y="250" width="680" height="258" rx="10" fill="#04342C" stroke="#5DCAA5" stroke-width="0.5"/>
<text x="400" y="274" text-anchor="middle" font-size="13" font-weight="500" fill="#9FE1CB">Agent loop (per-session, streaming)</text>
<rect x="85" y="290" width="140" height="48" rx="6" fill="#085041" stroke="#5DCAA5" stroke-width="0.5"/>
<text x="155" y="310" text-anchor="middle" font-size="11" font-weight="500" fill="#9FE1CB">PreContext</text>
<text x="155" y="326" text-anchor="middle" font-size="10" fill="#5DCAA5">Memory + skills</text>
<line x1="225" y1="314" x2="248" y2="314" stroke="#5DCAA5" stroke-width="0.8" marker-end="url(#a)"/>
<rect x="250" y="290" width="140" height="48" rx="6" fill="#085041" stroke="#5DCAA5" stroke-width="0.5"/>
<text x="320" y="310" text-anchor="middle" font-size="11" font-weight="500" fill="#9FE1CB">LLM call</text>
<text x="320" y="326" text-anchor="middle" font-size="10" fill="#5DCAA5">Stream + calibrate</text>
<line x1="390" y1="314" x2="413" y2="314" stroke="#5DCAA5" stroke-width="0.8" marker-end="url(#a)"/>
<rect x="415" y="290" width="140" height="48" rx="6" fill="#085041" stroke="#5DCAA5" stroke-width="0.5"/>
<text x="485" y="310" text-anchor="middle" font-size="11" font-weight="500" fill="#9FE1CB">Execute tools</text>
<text x="485" y="326" text-anchor="middle" font-size="10" fill="#5DCAA5">27+ built-in</text>
<line x1="555" y1="314" x2="578" y2="314" stroke="#5DCAA5" stroke-width="0.8" marker-end="url(#a)"/>
<rect x="580" y="290" width="140" height="48" rx="6" fill="#085041" stroke="#5DCAA5" stroke-width="0.5"/>
<text x="650" y="310" text-anchor="middle" font-size="11" font-weight="500" fill="#9FE1CB">PostTool</text>
<text x="650" y="326" text-anchor="middle" font-size="10" fill="#5DCAA5">Audit + scrub</text>
<path d="M650 338L650 354L155 354L155 338" fill="none" stroke="#5DCAA5" stroke-width="0.6" stroke-dasharray="3 2" marker-end="url(#a)"/>
<text x="400" y="368" text-anchor="middle" font-size="10" fill="#5DCAA5">loop until end_turn, timeout (300s), or budget limit</text>
<rect x="85" y="384" width="190" height="44" rx="6" fill="#633806" stroke="#FAC775" stroke-width="0.5"/>
<text x="180" y="402" text-anchor="middle" font-size="11" font-weight="500" fill="#FAEEDA">Context defense</text>
<text x="180" y="418" text-anchor="middle" font-size="10" fill="#FAC775">3-layer prune / compact</text>
<rect x="295" y="384" width="190" height="44" rx="6" fill="#633806" stroke="#FAC775" stroke-width="0.5"/>
<text x="390" y="402" text-anchor="middle" font-size="11" font-weight="500" fill="#FAEEDA">Loop detection</text>
<text x="390" y="418" text-anchor="middle" font-size="10" fill="#FAC775">3 strategies, 30-call window</text>
<rect x="505" y="384" width="190" height="44" rx="6" fill="#633806" stroke="#FAC775" stroke-width="0.5"/>
<text x="600" y="402" text-anchor="middle" font-size="11" font-weight="500" fill="#FAEEDA">Budget enforcement</text>
<text x="600" y="418" text-anchor="middle" font-size="10" fill="#FAC775">Per-agent daily / monthly caps</text>
<rect x="85" y="440" width="190" height="44" rx="6" fill="#791F1F" stroke="#F09595" stroke-width="0.5"/>
<text x="180" y="458" text-anchor="middle" font-size="11" font-weight="500" fill="#FCEBEB">Security</text>
<text x="180" y="474" text-anchor="middle" font-size="10" fill="#F09595">5-layer injection + sandbox</text>
<rect x="295" y="440" width="190" height="44" rx="6" fill="#72243E" stroke="#ED93B1" stroke-width="0.5"/>
<text x="390" y="458" text-anchor="middle" font-size="11" font-weight="500" fill="#FBEAF0">Consent by design</text>
<text x="390" y="474" text-anchor="middle" font-size="10" fill="#ED93B1">Pairing + cross-channel</text>
<rect x="505" y="440" width="190" height="44" rx="6" fill="#4A1B0C" stroke="#F0997B" stroke-width="0.5"/>
<text x="600" y="458" text-anchor="middle" font-size="11" font-weight="500" fill="#FAECE7">Credentials</text>
<text x="600" y="474" text-anchor="middle" font-size="10" fill="#F0997B">AES-256-GCM at rest</text>
<rect x="40" y="530" width="226" height="56" rx="8" fill="#26215C" stroke="#AFA9EC" stroke-width="0.5"/>
<text x="153" y="554" text-anchor="middle" font-size="12" font-weight="500" fill="#EEEDFE">SQLite + FTS5 + graph</text>
<text x="153" y="572" text-anchor="middle" font-size="10" fill="#CECBF6">Sessions, memories, knowledge</text>
<rect x="286" y="530" width="226" height="56" rx="8" fill="#26215C" stroke="#AFA9EC" stroke-width="0.5"/>
<text x="399" y="554" text-anchor="middle" font-size="12" font-weight="500" fill="#EEEDFE">Provider router</text>
<text x="399" y="572" text-anchor="middle" font-size="10" fill="#CECBF6">6 providers + tier failover</text>
<rect x="532" y="530" width="226" height="56" rx="8" fill="#26215C" stroke="#AFA9EC" stroke-width="0.5"/>
<text x="645" y="554" text-anchor="middle" font-size="12" font-weight="500" fill="#EEEDFE">Marketplace</text>
<text x="645" y="572" text-anchor="middle" font-size="10" fill="#CECBF6">401 MCPs + skills.sh</text>
<rect x="40" y="600" width="718" height="30" rx="6" fill="#2C2C2A" stroke="#444441" stroke-width="0.5"/>
<text x="400" y="620" text-anchor="middle" font-size="11" fill="#888780">Your machine · your data · your keys · encrypted at rest · sandboxed at runtime · private by default</text>
</svg>
