<svg xmlns="http://www.w3.org/2000/svg" viewBox="0 0 800 340" font-family="system-ui, -apple-system, sans-serif">
<rect width="800" height="340" rx="12" fill="#1C1C1A"/>
<defs><marker id="a" viewBox="0 0 10 10" refX="8" refY="5" markerWidth="6" markerHeight="6" orient="auto-start-reverse"><path d="M2 1L8 5L2 9" fill="none" stroke="context-stroke" stroke-width="1.5" stroke-linecap="round" stroke-linejoin="round"/></marker></defs>
<rect x="130" y="16" width="540" height="30" rx="15" fill="#085041" stroke="#5DCAA5" stroke-width="0.5"/>
<text x="400" y="36" text-anchor="middle" font-size="12" font-weight="500" fill="#E1F5EE">Compound intelligence: your agent gets better with every correction</text>
<rect x="30" y="80" width="140" height="56" rx="8" fill="#444441" stroke="#B4B2A9" stroke-width="0.5"/>
<text x="100" y="104" text-anchor="middle" font-size="12" font-weight="500" fill="#F1EFE8">Agent responds</text>
<text x="100" y="122" text-anchor="middle" font-size="10" fill="#B4B2A9">(makes a mistake)</text>
<line x1="170" y1="108" x2="198" y2="108" stroke="#888780" stroke-width="0.8" marker-end="url(#a)"/>
<rect x="200" y="80" width="140" height="56" rx="8" fill="#791F1F" stroke="#F09595" stroke-width="0.5"/>
<text x="270" y="104" text-anchor="middle" font-size="12" font-weight="500" fill="#FCEBEB">User corrects</text>
<text x="270" y="122" text-anchor="middle" font-size="10" fill="#F7C1C1">"No, do it this way"</text>
<line x1="340" y1="108" x2="368" y2="108" stroke="#888780" stroke-width="0.8" marker-end="url(#a)"/>
<rect x="370" y="80" width="140" height="56" rx="8" fill="#27500A" stroke="#97C459" stroke-width="0.5"/>
<text x="440" y="104" text-anchor="middle" font-size="12" font-weight="500" fill="#EAF3DE">Store lesson</text>
<text x="440" y="122" text-anchor="middle" font-size="10" fill="#C0DD97">sage-memory + tags</text>
<line x1="510" y1="108" x2="538" y2="108" stroke="#888780" stroke-width="0.8" marker-end="url(#a)"/>
<rect x="540" y="68" width="230" height="80" rx="10" fill="#085041" stroke="#5DCAA5" stroke-width="0.8"/>
<text x="655" y="92" text-anchor="middle" font-size="12" font-weight="500" fill="#E1F5EE">FTS5 BM25 memory</text>
<text x="655" y="110" text-anchor="middle" font-size="10" fill="#9FE1CB">Tag boosting + recency decay</text>
<text x="655" y="126" text-anchor="middle" font-size="10" fill="#9FE1CB">Confidence scoring (0.0-1.0)</text>
<text x="655" y="142" text-anchor="middle" font-size="10" fill="#9FE1CB">Knowledge graph edges</text>
<path d="M655 148L655 188L100 188L100 180" fill="none" stroke="#5DCAA5" stroke-width="0.8" stroke-dasharray="4 3"/>
<text x="400" y="184" text-anchor="middle" font-size="10" font-weight="500" fill="#9FE1CB">Next session: PreContext searches memory, injects prevention rule</text>
<rect x="170" y="206" width="460" height="56" rx="8" fill="#085041" stroke="#5DCAA5" stroke-width="0.8"/>
<text x="400" y="230" text-anchor="middle" font-size="12" font-weight="500" fill="#E1F5EE">Agent avoids the same mistake</text>
<text x="400" y="248" text-anchor="middle" font-size="10" fill="#9FE1CB">Prevention rule auto-injected — no human reminder needed</text>
<path d="M630 246L700 246L700 154" fill="none" stroke="#1D9E75" stroke-width="1" marker-end="url(#a)"/>
<text x="738" y="196" font-size="10" fill="#5DCAA5" font-weight="500">compounds</text>
<text x="738" y="210" font-size="10" fill="#5DCAA5" font-weight="500">over time</text>
<rect x="50" y="286" width="700" height="34" rx="6" fill="#2C2C2A" stroke="#444441" stroke-width="0.5"/>
<text x="400" y="308" text-anchor="middle" font-size="11" fill="#888780">No other agent platform has a closed self-learning loop. This is unique to SageClaw.</text>
</svg>
